# xmcd CD database file
# Copyright (C) 1993-1998 Ti Kan
# 
# Track frame offsets:
#     150
#     17562
#     34647
#     54990
#     70775
#     88450
#     105632
#     125402
#     145047
#     165422
#     182802
# 
# Disc length: 2696 seconds
# 
# Revision: 1
# Processed by: cddbd v1.4b41PL1 Copyright (c) Steve Scherf et al.
# Submitted via: DiscPlay 4.0.4
# 
DISCID=8b0a860b
DTITLE=Sergio Caputo - Egomusicocefalo
DYEAR=1900
DGENRE=
TTITLE0=Scendi Dalle Nuvole
TTITLE1=Scendi Dalle Nuvole 2
TTITLE2=Un Lentissimo Rock
TTITLE3=Abbracciami
TTITLE4=Un Giorno Di Settembre
TTITLE5=Welcome To The Wild Side
TTITLE6=Egomusicocefalo
TTITLE7=Nel Tunnel
TTITLE8=Sanguamaro
TTITLE9=Shaker
TTITLE10=Semplici Emozioni
EXTD=
EXTT0=
EXTT1=
EXTT2=
EXTT3=
EXTT4=
EXTT5=
EXTT6=
EXTT7=
EXTT8=
EXTT9=
EXTT10=
PLAYORDER=
